<mxfile host="app.diagrams.net" modified="2023-05-29T02:28:06.247Z" agent="Mozilla/5.0 (Windows NT 10.0; Win64; x64) AppleWebKit/537.36 (KHTML, like Gecko) Chrome/113.0.0.0 Safari/537.36 Edg/113.0.1774.50" etag="fD7ew0ox1gTSoKswybZ5" version="21.2.1" type="github">
  <diagram name="Page-1" id="2YBvvXClWsGukQMizWep">
    <mxGraphModel dx="1290" dy="581" grid="1" gridSize="10" guides="1" tooltips="1" connect="1" arrows="1" fold="1" page="1" pageScale="1" pageWidth="850" pageHeight="1100" math="0" shadow="0">
      <root>
        <mxCell id="0" />
        <mxCell id="1" parent="0" />
        <mxCell id="a5LwdrUnwiNi0MwQjIQm-1" value="用户" style="shape=umlActor;verticalLabelPosition=bottom;verticalAlign=top;html=1;outlineConnect=0;" vertex="1" parent="1">
          <mxGeometry x="10" y="230" width="30" height="60" as="geometry" />
        </mxCell>
        <mxCell id="a5LwdrUnwiNi0MwQjIQm-7" value="" style="swimlane;startSize=0;" vertex="1" parent="1">
          <mxGeometry x="170" y="150" width="450" height="650" as="geometry" />
        </mxCell>
        <mxCell id="a5LwdrUnwiNi0MwQjIQm-8" value="基于云平台的共享式无人值守扫码打/复印机" style="text;html=1;strokeColor=none;fillColor=none;align=center;verticalAlign=middle;whiteSpace=wrap;rounded=0;" vertex="1" parent="a5LwdrUnwiNi0MwQjIQm-7">
          <mxGeometry x="95" y="-10" width="260" height="70" as="geometry" />
        </mxCell>
        <mxCell id="a5LwdrUnwiNi0MwQjIQm-5" value="扫码" style="ellipse;whiteSpace=wrap;html=1;" vertex="1" parent="a5LwdrUnwiNi0MwQjIQm-7">
          <mxGeometry x="60" y="60" width="120" height="50" as="geometry" />
        </mxCell>
        <mxCell id="a5LwdrUnwiNi0MwQjIQm-9" value="上传文件" style="ellipse;whiteSpace=wrap;html=1;" vertex="1" parent="a5LwdrUnwiNi0MwQjIQm-7">
          <mxGeometry x="190" y="170" width="120" height="50" as="geometry" />
        </mxCell>
        <mxCell id="a5LwdrUnwiNi0MwQjIQm-10" value="预览" style="ellipse;whiteSpace=wrap;html=1;" vertex="1" parent="a5LwdrUnwiNi0MwQjIQm-7">
          <mxGeometry x="60" y="200" width="120" height="50" as="geometry" />
        </mxCell>
        <mxCell id="a5LwdrUnwiNi0MwQjIQm-11" value="支付" style="ellipse;whiteSpace=wrap;html=1;" vertex="1" parent="a5LwdrUnwiNi0MwQjIQm-7">
          <mxGeometry x="120" y="300" width="120" height="50" as="geometry" />
        </mxCell>
        <mxCell id="a5LwdrUnwiNi0MwQjIQm-12" value="交付" style="ellipse;whiteSpace=wrap;html=1;" vertex="1" parent="a5LwdrUnwiNi0MwQjIQm-7">
          <mxGeometry x="170" y="390" width="120" height="50" as="geometry" />
        </mxCell>
        <mxCell id="a5LwdrUnwiNi0MwQjIQm-20" value="&amp;lt;&amp;lt;include&amp;gt;&amp;gt;" style="edgeStyle=none;html=1;endArrow=open;verticalAlign=bottom;dashed=1;labelBackgroundColor=none;rounded=0;exitX=0.5;exitY=1;exitDx=0;exitDy=0;" edge="1" parent="a5LwdrUnwiNi0MwQjIQm-7" source="a5LwdrUnwiNi0MwQjIQm-5" target="a5LwdrUnwiNi0MwQjIQm-9">
          <mxGeometry width="160" relative="1" as="geometry">
            <mxPoint x="120" y="260" as="sourcePoint" />
            <mxPoint x="280" y="260" as="targetPoint" />
          </mxGeometry>
        </mxCell>
        <mxCell id="a5LwdrUnwiNi0MwQjIQm-21" value="&amp;lt;&amp;lt;include&amp;gt;&amp;gt;" style="edgeStyle=none;html=1;endArrow=open;verticalAlign=bottom;dashed=1;labelBackgroundColor=none;rounded=0;exitX=0.5;exitY=1;exitDx=0;exitDy=0;entryX=0.5;entryY=0;entryDx=0;entryDy=0;" edge="1" parent="a5LwdrUnwiNi0MwQjIQm-7" source="a5LwdrUnwiNi0MwQjIQm-10" target="a5LwdrUnwiNi0MwQjIQm-11">
          <mxGeometry width="160" relative="1" as="geometry">
            <mxPoint x="130" y="120" as="sourcePoint" />
            <mxPoint x="222" y="166" as="targetPoint" />
          </mxGeometry>
        </mxCell>
        <mxCell id="a5LwdrUnwiNi0MwQjIQm-22" value="&amp;lt;&amp;lt;include&amp;gt;&amp;gt;" style="edgeStyle=none;html=1;endArrow=open;verticalAlign=bottom;dashed=1;labelBackgroundColor=none;rounded=0;exitX=0.5;exitY=1;exitDx=0;exitDy=0;entryX=0.5;entryY=0;entryDx=0;entryDy=0;" edge="1" parent="a5LwdrUnwiNi0MwQjIQm-7" source="a5LwdrUnwiNi0MwQjIQm-11" target="a5LwdrUnwiNi0MwQjIQm-12">
          <mxGeometry width="160" relative="1" as="geometry">
            <mxPoint x="140" y="130" as="sourcePoint" />
            <mxPoint x="232" y="176" as="targetPoint" />
          </mxGeometry>
        </mxCell>
        <mxCell id="a5LwdrUnwiNi0MwQjIQm-23" value="&amp;lt;&amp;lt;extend&amp;gt;&amp;gt;" style="edgeStyle=none;html=1;endArrow=open;verticalAlign=bottom;dashed=1;labelBackgroundColor=none;rounded=0;exitX=1;exitY=0.5;exitDx=0;exitDy=0;entryX=0;entryY=0.5;entryDx=0;entryDy=0;" edge="1" parent="a5LwdrUnwiNi0MwQjIQm-7" source="a5LwdrUnwiNi0MwQjIQm-11" target="a5LwdrUnwiNi0MwQjIQm-24">
          <mxGeometry width="160" relative="1" as="geometry">
            <mxPoint x="170" y="340" as="sourcePoint" />
            <mxPoint x="270" y="330" as="targetPoint" />
          </mxGeometry>
        </mxCell>
        <mxCell id="a5LwdrUnwiNi0MwQjIQm-24" value="支付失败" style="ellipse;whiteSpace=wrap;html=1;" vertex="1" parent="a5LwdrUnwiNi0MwQjIQm-7">
          <mxGeometry x="290" y="250" width="110" height="50" as="geometry" />
        </mxCell>
        <mxCell id="a5LwdrUnwiNi0MwQjIQm-25" value="&amp;lt;&amp;lt;extend&amp;gt;&amp;gt;" style="edgeStyle=none;html=1;endArrow=open;verticalAlign=bottom;dashed=1;labelBackgroundColor=none;rounded=0;exitX=0.687;exitY=0.052;exitDx=0;exitDy=0;entryX=0.5;entryY=1;entryDx=0;entryDy=0;exitPerimeter=0;" edge="1" parent="a5LwdrUnwiNi0MwQjIQm-7" target="a5LwdrUnwiNi0MwQjIQm-26" source="a5LwdrUnwiNi0MwQjIQm-9">
          <mxGeometry width="160" relative="1" as="geometry">
            <mxPoint x="200" y="105" as="sourcePoint" />
            <mxPoint x="320" y="90" as="targetPoint" />
          </mxGeometry>
        </mxCell>
        <mxCell id="a5LwdrUnwiNi0MwQjIQm-26" value="文件不符合打印规格" style="ellipse;whiteSpace=wrap;html=1;" vertex="1" parent="a5LwdrUnwiNi0MwQjIQm-7">
          <mxGeometry x="280" y="60" width="130" height="60" as="geometry" />
        </mxCell>
        <mxCell id="a5LwdrUnwiNi0MwQjIQm-28" value="查看打印机情况" style="ellipse;whiteSpace=wrap;html=1;" vertex="1" parent="a5LwdrUnwiNi0MwQjIQm-7">
          <mxGeometry x="140" y="450" width="130" height="60" as="geometry" />
        </mxCell>
        <mxCell id="a5LwdrUnwiNi0MwQjIQm-32" value="禁用/启用打印机" style="ellipse;whiteSpace=wrap;html=1;" vertex="1" parent="a5LwdrUnwiNi0MwQjIQm-7">
          <mxGeometry x="140" y="540" width="140" height="70" as="geometry" />
        </mxCell>
        <mxCell id="a5LwdrUnwiNi0MwQjIQm-17" value="" style="endArrow=classic;html=1;rounded=0;entryX=0;entryY=0.5;entryDx=0;entryDy=0;exitX=0.5;exitY=0.5;exitDx=0;exitDy=0;exitPerimeter=0;" edge="1" parent="1" source="a5LwdrUnwiNi0MwQjIQm-1" target="a5LwdrUnwiNi0MwQjIQm-5">
          <mxGeometry width="50" height="50" relative="1" as="geometry">
            <mxPoint x="30" y="260" as="sourcePoint" />
            <mxPoint x="90" y="210" as="targetPoint" />
          </mxGeometry>
        </mxCell>
        <mxCell id="a5LwdrUnwiNi0MwQjIQm-18" value="" style="endArrow=classic;html=1;rounded=0;entryX=0;entryY=0.5;entryDx=0;entryDy=0;" edge="1" parent="1" target="a5LwdrUnwiNi0MwQjIQm-10">
          <mxGeometry width="50" height="50" relative="1" as="geometry">
            <mxPoint x="25" y="260" as="sourcePoint" />
            <mxPoint x="290" y="245" as="targetPoint" />
          </mxGeometry>
        </mxCell>
        <mxCell id="a5LwdrUnwiNi0MwQjIQm-27" value="管理员" style="shape=umlActor;html=1;verticalLabelPosition=bottom;verticalAlign=top;align=center;" vertex="1" parent="1">
          <mxGeometry x="680" y="650" width="30" height="60" as="geometry" />
        </mxCell>
        <mxCell id="a5LwdrUnwiNi0MwQjIQm-29" value="" style="endArrow=classic;html=1;rounded=0;entryX=1;entryY=0.5;entryDx=0;entryDy=0;exitX=0.5;exitY=0.5;exitDx=0;exitDy=0;exitPerimeter=0;" edge="1" parent="1" source="a5LwdrUnwiNi0MwQjIQm-27" target="a5LwdrUnwiNi0MwQjIQm-28">
          <mxGeometry width="50" height="50" relative="1" as="geometry">
            <mxPoint x="520" y="645" as="sourcePoint" />
            <mxPoint x="685" y="620" as="targetPoint" />
          </mxGeometry>
        </mxCell>
        <mxCell id="a5LwdrUnwiNi0MwQjIQm-31" value="" style="endArrow=classic;html=1;rounded=0;entryX=0;entryY=0;entryDx=0;entryDy=0;exitX=0.5;exitY=0.5;exitDx=0;exitDy=0;exitPerimeter=0;" edge="1" parent="1" source="a5LwdrUnwiNi0MwQjIQm-1" target="a5LwdrUnwiNi0MwQjIQm-28">
          <mxGeometry width="50" height="50" relative="1" as="geometry">
            <mxPoint x="35" y="270" as="sourcePoint" />
            <mxPoint x="200" y="385" as="targetPoint" />
          </mxGeometry>
        </mxCell>
        <mxCell id="a5LwdrUnwiNi0MwQjIQm-33" value="" style="endArrow=classic;html=1;rounded=0;entryX=1;entryY=0.5;entryDx=0;entryDy=0;exitX=0.5;exitY=0.5;exitDx=0;exitDy=0;exitPerimeter=0;" edge="1" parent="1" source="a5LwdrUnwiNi0MwQjIQm-27" target="a5LwdrUnwiNi0MwQjIQm-32">
          <mxGeometry width="50" height="50" relative="1" as="geometry">
            <mxPoint x="820" y="620" as="sourcePoint" />
            <mxPoint x="410" y="640" as="targetPoint" />
          </mxGeometry>
        </mxCell>
      </root>
    </mxGraphModel>
  </diagram>
</mxfile>
